<svg id="Layer_1" enable-background="new 0 0 512.129 512.129" height="512" viewBox="0 0 512.129 512.129" width="512" xmlns="http://www.w3.org/2000/svg"><path d="m48.129 416.064h416c8.837 0 16 7.163 16 16v64c0 8.837-7.163 16-16 16h-416c-8.837 0-16-7.163-16-16v-64c0-8.836 7.163-16 16-16z" fill="#aaa"/><path d="m144.129 288.064h-96v-128c0-8.837 7.163-16 16-16h64c8.837 0 16 7.163 16 16z" fill="#bcbcbc"/><path d="m464.129 288.064h-96v-128c0-8.837 7.163-16 16-16h64c8.837 0 16 7.163 16 16z" fill="#bcbcbc"/><path d="m512.129 304.064v94c0 26.51-21.49 48-48 48h-416c-26.51 0-48-21.49-48-48 0-101.028-1.148-100.415 3.41-111.81 7.08-17.69 24.37-30.19 44.59-30.19h416c26.51 0 48 21.491 48 48z" fill="#d3cdcd"/><path d="m512.129 304.064v38c0 26.51-21.49 48-48 48h-330c-63.63 0-116.89-44.34-130.59-103.81 7.08-17.69 24.37-30.19 44.59-30.19h416c26.51 0 48 21.491 48 48z" fill="#ece2e2"/><path d="m464.129 256.064v-96c0-8.837-7.164-16-16-16h-16v-128c0-8.837-7.164-16-16-16s-16 7.163-16 16v128h-16c-8.836 0-16 7.163-16 16v96h-224v-96c0-8.837-7.164-16-16-16h-16v-128c0-8.837-7.164-16-16-16s-16 7.163-16 16v128h-16c-8.836 0-16 7.163-16 16v96c-26.467 0-48 21.532-48 48v96c0 20.859 13.377 38.643 32 45.248v50.752c0 8.837 7.164 16 16 16h416c8.836 0 16-7.163 16-16v-50.752c18.623-6.605 32-24.389 32-45.248v-96c0-26.467-21.533-48-48-48zm-64-80h32v80h-32zm-320 0h32v80h-32zm368 304h-384v-32h384zm32-80c0 8.822-7.178 16-16 16h-416c-8.822 0-16-7.178-16-16v-96c0-8.822 7.178-16 16-16h416c8.822 0 16 7.178 16 16z"/><circle cx="80.129" cy="352.064" r="16"/><circle cx="144.129" cy="352.064" r="16"/><circle cx="208.129" cy="352.064" r="16"/><path d="m432.129 336.064h-160c-8.836 0-16 7.163-16 16s7.164 16 16 16h160c8.836 0 16-7.163 16-16s-7.164-16-16-16z"/><path d="m224.129 192.064c0 17.645 14.355 32 32 32s32-14.355 32-32-14.355-32-32-32-32 14.356-32 32z"/><path d="m312.697 151.496c14.125 0 21.423-17.205 11.314-27.313-37.518-37.518-98.243-37.521-135.765 0-6.248 6.248-6.248 16.379 0 22.627s16.378 6.248 22.627 0c25.011-25.011 65.495-25.014 90.509 0 3.126 3.125 7.22 4.686 11.315 4.686z"/><path d="m165.619 101.555c49.907-49.906 131.112-49.906 181.02 0 3.124 3.124 7.219 4.687 11.313 4.687 14.126 0 21.421-17.206 11.313-27.313-62.384-62.385-163.89-62.385-226.273 0-6.249 6.248-6.249 16.379 0 22.627 6.248 6.247 16.379 6.247 22.627-.001z"/></svg>